<?xml version="1.0" standalone="no"?>
<!DOCTYPE svg PUBLIC "-//W3C//DTD SVG 20010904//EN"
 "http://www.w3.org/TR/2001/REC-SVG-20010904/DTD/svg10.dtd">
<svg version="1.0" xmlns="http://www.w3.org/2000/svg"
 width="1092.000000pt" height="1310.000000pt" viewBox="0 0 1092.000000 1280.000000"
 preserveAspectRatio="xMidYMid meet">
<g transform="translate(0.000000,1280.000000) scale(0.100000,-0.100000)"
fill="#000000" stroke="none">
<path d="M4758 12795 c-3 -4 -73 -15 -155 -26 -137 -17 -158 -23 -279 -74
-129 -55 -131 -56 -193 -131 -63 -75 -64 -75 -58 -125 5 -44 0 -68 -48 -197
-45 -124 -55 -162 -60 -242 -11 -147 -28 -202 -101 -314 -35 -54 -64 -102 -64
-105 0 -4 23 -18 52 -32 85 -39 90 -53 74 -184 l-14 -110 50 -46 50 -47 -7
-58 c-5 -36 -24 -95 -51 -153 -46 -99 -51 -124 -32 -166 l11 -25 210 0 209 0
34 -34 c38 -38 43 -67 15 -87 -18 -13 -20 -33 -27 -299 -8 -334 -1 -306 -138
-561 -85 -158 -98 -177 -140 -204 -26 -16 -109 -70 -184 -118 -137 -89 -220
-130 -253 -125 -10 2 -79 61 -153 131 -135 128 -166 167 -331 429 -5 9 -32 46
-59 83 -66 91 -92 192 -107 415 -10 151 -15 177 -54 303 -36 113 -56 156 -109
240 -58 92 -77 112 -178 193 l-113 91 -120 6 c-99 5 -139 3 -227 -15 l-108
-21 -52 -91 -52 -91 -4 -120 c-6 -181 18 -317 74 -421 24 -45 73 -160 108
-255 35 -96 68 -182 72 -192 4 -11 57 -56 118 -102 61 -46 145 -116 187 -157
74 -71 79 -78 139 -218 34 -80 95 -242 136 -360 l73 -215 171 -283 c148 -247
331 -509 382 -549 7 -5 83 -39 168 -75 120 -51 188 -72 302 -97 l148 -31 97
35 c54 19 106 35 116 35 20 0 20 3 6 -395 -5 -154 -12 -394 -14 -534 -3 -140
-6 -256 -8 -257 -5 -5 -324 -19 -442 -19 -60 0 -221 4 -357 8 l-247 9 -3 -29
c-3 -26 -21 -37 -254 -153 l-252 -126 -298 -239 c-165 -132 -369 -303 -454
-381 -127 -115 -173 -150 -255 -194 -80 -42 -182 -113 -247 -169 -11 -10 -37
-286 -43 -471 -6 -154 -4 -187 14 -273 12 -55 32 -235 46 -410 26 -308 27
-317 116 -757 50 -245 124 -600 165 -790 70 -323 77 -364 104 -645 25 -268 27
-309 16 -387 -7 -48 -15 -90 -18 -93 -3 -4 -75 -27 -160 -52 -167 -49 -252
-94 -450 -234 -57 -41 -146 -91 -216 -123 l-118 -53 -260 -6 c-257 -5 -561
-36 -591 -60 -7 -5 -18 -28 -24 -51 -6 -22 -17 -55 -26 -73 -14 -30 -14 -32
32 -91 43 -57 49 -61 103 -72 31 -6 77 -18 102 -25 25 -8 81 -19 125 -25 72
-10 81 -9 93 7 12 17 50 18 655 17 446 -1 749 -7 992 -18 l349 -18 118 28 c64
15 122 30 128 34 6 4 31 59 55 124 l44 116 -51 126 -52 127 -122 91 c-68 50
-125 96 -128 102 -2 7 5 70 16 141 l20 130 -46 150 -46 151 0 449 0 449 115
560 114 561 -9 164 c-12 206 -12 440 -1 457 12 20 364 72 529 79 140 6 143 5
149 -16 7 -27 -13 -27 538 9 248 16 493 30 547 30 80 0 131 8 309 50 117 27
223 50 235 50 18 0 63 -57 228 -290 l205 -291 332 -352 c289 -305 337 -352
361 -351 36 2 127 -77 510 -443 272 -261 304 -295 384 -411 48 -70 101 -144
117 -164 l29 -38 154 0 c150 0 160 -1 335 -45 153 -39 242 -70 589 -209 l409
-164 606 -330 c599 -327 608 -331 778 -387 102 -34 179 -65 189 -77 9 -10 46
-77 82 -147 57 -113 71 -151 115 -327 28 -109 75 -291 106 -404 46 -169 85
-373 85 -447 0 -7 28 -27 63 -44 34 -17 70 -38 80 -47 14 -13 25 -13 70 -4 28
7 65 13 82 15 29 2 30 3 54 117 42 200 33 586 -29 1133 -19 167 -79 471 -97
487 -4 4 -98 -3 -208 -16 -110 -13 -220 -24 -245 -24 l-46 0 -160 163 c-252
256 -912 944 -1099 1145 l-170 184 -226 113 -226 113 -211 15 -212 15 -102 88
c-219 191 -212 182 -269 339 -37 101 -69 221 -115 435 -58 268 -73 320 -159
560 -91 250 -100 271 -171 376 -55 81 -96 128 -150 173 l-73 61 6 258 c6 256
6 258 -26 452 -22 130 -46 236 -73 320 -82 251 -84 255 -215 407 -107 123
-200 240 -343 428 l-45 60 -64 328 -63 328 21 377 c12 207 21 458 21 557 0
154 18 500 36 671 6 62 3 61 167 70 l117 7 128 -57 c241 -107 440 -284 656
-586 74 -102 145 -207 158 -235 39 -76 149 -323 217 -486 l61 -145 108 -95
c59 -52 115 -100 124 -107 14 -11 636 -117 644 -110 6 7 174 434 174 443 0 5
-71 78 -157 160 l-157 150 -185 15 -186 15 -97 130 c-89 119 -103 143 -164
295 -52 129 -75 203 -104 337 -34 157 -44 186 -116 338 -75 160 -83 172 -199
308 -114 133 -129 147 -237 215 -64 40 -119 79 -122 87 -6 17 -36 31 -326 152
-157 65 -253 98 -407 139 -195 51 -209 53 -375 60 l-173 7 -140 52 -140 53 2
54 c1 29 4 118 7 198 l4 145 57 120 c45 95 63 150 89 265 l32 145 -9 210 -9
210 -91 168 -91 167 -146 95 -145 94 -140 11 c-77 6 -162 13 -190 16 -27 3
-53 3 -57 -1z"/>
</g>
</svg>
