<?xml version="1.0" standalone="no"?>
<!DOCTYPE svg PUBLIC "-//W3C//DTD SVG 20010904//EN"
 "http://www.w3.org/TR/2001/REC-SVG-20010904/DTD/svg10.dtd">
<svg version="1.0" xmlns="http://www.w3.org/2000/svg"
 width="1280.000000pt" height="1550.000000pt" viewBox="0 0 1280.000000 737.000000"
 preserveAspectRatio="xMidYMid meet">
<g transform="translate(0.000000,737.000000) scale(0.100000,-0.100000)"
fill="#000000" stroke="none">
<path d="M7346 7309 c-3 -34 -6 -93 -6 -130 l0 -69 412 0 411 0 81 -86 c45
-47 85 -92 89 -100 5 -9 -25 -73 -89 -186 l-96 -173 118 -415 c64 -228 119
-425 122 -438 l4 -22 -1723 2 -1723 3 -25 78 c-29 89 -28 91 48 102 81 11 308
74 439 121 245 88 383 168 398 230 12 48 -41 96 -121 108 -82 12 -1549 78
-1776 80 -220 1 -238 0 -258 -18 -25 -23 -27 -65 -6 -107 47 -90 200 -231 315
-289 74 -37 231 -85 359 -110 58 -11 108 -24 111 -30 4 -6 35 -87 69 -181 56
-151 62 -172 49 -187 -8 -9 -189 -232 -402 -494 -212 -262 -391 -480 -397
-483 -5 -4 -83 29 -172 73 -344 171 -660 248 -1053 259 -281 8 -478 -15 -734
-83 -648 -175 -1231 -658 -1530 -1268 -118 -242 -192 -477 -223 -716 -9 -63
-21 -156 -28 -207 -24 -183 21 -557 99 -823 83 -281 242 -585 432 -825 35 -44
120 -136 189 -205 383 -382 883 -626 1411 -690 52 -6 122 -15 156 -21 78 -12
220 -12 298 0 34 6 104 15 156 21 914 111 1719 765 2014 1639 25 74 49 138 53
142 4 4 141 -16 303 -45 162 -30 328 -59 368 -66 70 -11 74 -14 99 -53 33 -55
78 -102 131 -138 30 -21 42 -37 42 -54 0 -13 -27 -154 -61 -312 -41 -193 -66
-292 -77 -301 -9 -7 -46 -12 -89 -12 l-73 0 -1 -60 c-1 -33 -2 -66 -3 -72 -1
-10 53 -16 209 -25 116 -6 231 -12 258 -12 l47 -1 0 80 0 80 -59 0 c-33 0 -62
4 -65 8 -6 10 151 623 161 632 5 4 34 14 65 23 167 51 267 202 238 364 l-11
64 154 172 c84 95 630 707 1212 1362 582 655 1065 1190 1073 1190 15 0 112
-243 112 -281 0 -11 -12 -29 -28 -41 -51 -38 -177 -157 -261 -248 -340 -365
-560 -838 -626 -1338 -19 -150 -20 -448 0 -593 20 -155 51 -297 92 -427 280
-886 1069 -1551 1984 -1671 68 -9 154 -21 191 -26 85 -13 210 -13 296 0 37 5
110 14 162 21 525 62 1028 307 1411 689 69 69 154 161 189 205 190 240 349
544 432 825 78 266 123 640 99 823 -7 51 -19 144 -28 207 -92 693 -526 1344
-1150 1722 -311 189 -648 301 -1018 339 -170 17 -484 7 -645 -21 -228 -40
-404 -93 -610 -184 -57 -26 -111 -45 -118 -44 -9 2 -141 350 -363 958 -192
525 -349 957 -349 961 0 3 47 86 105 184 58 98 104 185 103 193 -2 8 -100 120
-218 248 l-215 233 -466 1 -466 0 -7 -61z m1201 -2103 c12 -39 23 -79 23 -90
0 -13 -421 -491 -1146 -1301 -630 -704 -1153 -1284 -1161 -1289 -14 -8 -15 5
-8 110 4 66 10 137 14 159 l6 40 58 3 c51 3 57 5 57 25 0 12 3 46 6 75 l7 52
-222 0 -221 0 0 -27 c0 -16 -3 -52 -6 -80 l-7 -53 47 0 c31 0 48 -5 52 -14 8
-22 -30 -271 -41 -269 -5 1 -13 7 -17 15 -11 20 -898 2694 -898 2707 0 8 467
10 1717 9 l1716 -3 24 -69z m-3361 -1606 c260 -789 474 -1443 474 -1452 0 -14
-8 -18 -36 -18 -72 0 -729 71 -737 79 -5 5 -9 105 -8 223 1 141 -4 255 -14
337 -70 554 -288 1013 -671 1410 -63 65 -114 124 -114 130 0 20 604 732 618
729 9 -2 196 -553 488 -1438z m-2403 785 c243 -38 433 -93 604 -175 67 -31
103 -54 103 -65 0 -12 -895 -1206 -1036 -1382 -26 -31 -43 -43 -73 -48 -130
-22 -226 -174 -193 -303 37 -140 171 -217 317 -182 53 13 74 9 941 -156 487
-93 893 -173 901 -179 31 -23 -107 -350 -225 -530 -86 -132 -167 -228 -295
-351 -553 -530 -1358 -700 -2067 -437 -689 255 -1178 858 -1284 1584 -20 134
-21 400 -1 534 94 659 501 1218 1100 1511 207 101 438 168 660 193 119 13 425
5 548 -14z m7758 15 c779 -79 1438 -595 1692 -1327 42 -119 81 -291 98 -426
15 -127 7 -422 -16 -547 -111 -614 -497 -1138 -1045 -1419 -269 -138 -488
-199 -788 -221 -551 -41 -1109 164 -1511 554 -321 312 -511 675 -587 1121 -24
138 -24 452 -1 590 73 425 258 793 546 1083 53 53 76 70 85 63 7 -6 27 -50 46
-98 19 -48 66 -152 106 -230 190 -376 440 -672 831 -984 77 -62 93 -80 98
-109 19 -106 63 -170 138 -206 124 -57 272 -3 332 121 26 56 25 157 -2 210
-39 73 -110 126 -188 141 -83 15 -468 372 -621 577 -101 134 -188 285 -258
447 -72 167 -141 371 -133 392 3 10 42 35 85 57 344 173 730 247 1093 211z
m-6610 -568 c330 -347 471 -732 495 -1352 6 -138 5 -168 -7 -172 -8 -3 -367
53 -798 123 -432 70 -804 130 -828 134 -36 5 -44 10 -41 25 3 18 1006 1323
1036 1347 22 18 37 6 143 -105z"/>
</g>
</svg>
